<?xml version="1.0" encoding="utf-8"?>
<!-- Generator: Adobe Illustrator 19.0.0, SVG Export Plug-In . SVG Version: 6.00 Build 0)  -->
<svg version="1.1" id="Layer_1" xmlns="http://www.w3.org/2000/svg" xmlns:xlink="http://www.w3.org/1999/xlink" x="0px" y="0px"
	 viewBox="0 0 640 480" style="enable-background:new 0 0 640 480;" xml:space="preserve">
<style type="text/css">
	.st0{clip-path:url(#SVGID_2_);fill:url(#SVGID_3_);}
	.st1{clip-path:url(#SVGID_5_);fill:none;stroke:#000000;stroke-miterlimit:10;}
	.st2{clip-path:url(#SVGID_7_);fill:url(#SVGID_8_);}
	.st3{clip-path:url(#SVGID_10_);fill:none;stroke:#000000;stroke-miterlimit:10;}
	.st4{clip-path:url(#SVGID_12_);fill:url(#SVGID_13_);stroke:#000000;stroke-miterlimit:10;}
	.st5{clip-path:url(#SVGID_15_);fill:none;stroke:#000000;stroke-miterlimit:10;}
	.st6{clip-path:url(#SVGID_17_);fill:url(#SVGID_18_);}
	.st7{clip-path:url(#SVGID_20_);fill:none;stroke:#000000;stroke-miterlimit:10;}
	.st8{clip-path:url(#SVGID_20_);fill:#FFFFFF;}
	.st9{clip-path:url(#SVGID_22_);fill:url(#SVGID_23_);}
	.st10{clip-path:url(#SVGID_25_);fill:none;stroke:#000000;stroke-miterlimit:10;}
	.st11{clip-path:url(#SVGID_25_);fill:#FFFFFF;}
	.st12{clip-path:url(#SVGID_27_);fill:url(#SVGID_28_);}
	.st13{clip-path:url(#SVGID_30_);fill:none;stroke:#000000;stroke-miterlimit:10;}
	.st14{clip-path:url(#SVGID_30_);fill:#FFFFFF;}
	.st15{clip-path:url(#SVGID_32_);fill:url(#SVGID_33_);}
	.st16{clip-path:url(#SVGID_35_);fill:none;stroke:#000000;stroke-miterlimit:10;}
	.st17{clip-path:url(#SVGID_35_);fill:#FFFFFF;}
</style>
<g>
	<defs>
		<path id="SVGID_1_" d="M405.6,204.2c0.3,0.6,0.7,1.5,0.9,2.7c0.2,1.6-0.2,2.9-0.4,3.6c12.2-5.9,17-8.2,17-8.2
			c1.6,4,3.9,9.8,6.5,17c0.1,0.3,0.5,1.4,1,2.7c1.7,4.8,4,11.7,6.8,20.8c6-1.9,13.4-3.6,22-4.5c11.8-1.2,21.9-0.4,29.5,0.8
			c-0.3-0.3-1.2-1.5-1.2-3.2c0-1.3,0.5-2.3,0.8-2.7c-7.8-1-17.7-1.5-29.1-0.1c-6.3,0.8-11.9,2-16.8,3.4c-0.6-1.2-1.4-3-2.4-5.2
			c-2.8-6.1-6.4-14.8-9.6-25.4c-0.9-3.1-2.1-7.2-3.3-12.1C419.9,197.2,412.7,200.7,405.6,204.2"/>
	</defs>
	<clipPath id="SVGID_2_">
		<use xlink:href="#SVGID_1_"  style="overflow:visible;"/>
	</clipPath>
	
		<linearGradient id="SVGID_3_" gradientUnits="userSpaceOnUse" x1="-1.6905" y1="481.5878" x2="-0.8771" y2="481.5878" gradientTransform="matrix(24.4541 -28.6353 -28.6353 -24.4541 14284.1816 11940.4795)">
		<stop  offset="0" style="stop-color:#AA0004"/>
		<stop  offset="9.968600e-002" style="stop-color:#AA0004"/>
		<stop  offset="0.1102" style="stop-color:#C8000A"/>
		<stop  offset="0.1215" style="stop-color:#E0000F"/>
		<stop  offset="0.1333" style="stop-color:#F10012"/>
		<stop  offset="0.1462" style="stop-color:#FC0014"/>
		<stop  offset="0.1617" style="stop-color:#FF0015"/>
		<stop  offset="1" style="stop-color:#FF0015"/>
	</linearGradient>
	<polygon class="st0" points="381.3,222.1 440.7,152.6 513.1,214.4 453.7,283.9 	"/>
</g>
<g>
	<defs>
		<rect id="SVGID_4_" x="15.5" y="48.8" width="520.6" height="390.4"/>
	</defs>
	<clipPath id="SVGID_5_">
		<use xlink:href="#SVGID_4_"  style="overflow:visible;"/>
	</clipPath>
	<path class="st1" d="M406,210.5c12.2-5.9,17-8.2,17-8.2c1.6,4,3.9,9.8,6.5,17c0.1,0.3,0.5,1.4,1,2.7c1.7,4.8,4,11.7,6.8,20.8
		c6-1.9,13.4-3.6,22-4.5c11.8-1.2,21.9-0.4,29.5,0.8c-0.3-0.3-1.2-1.5-1.2-3.2c0-1.3,0.5-2.3,0.8-2.7c-7.8-1-17.7-1.5-29.1-0.1
		c-6.3,0.8-11.9,2-16.8,3.4c-0.6-1.2-1.4-3-2.4-5.2c-2.8-6.1-6.4-14.8-9.6-25.4c-0.9-3.1-2.1-7.2-3.3-12.1
		c-7.2,3.5-14.3,7-21.5,10.5c0.3,0.6,0.7,1.5,0.9,2.7C406.6,208.6,406.3,209.8,406,210.5z"/>
</g>
<g>
	<defs>
		<path id="SVGID_6_" d="M408,202.5c0.3,0.6,0.7,1.5,0.9,2.7c0.2,1.6-0.2,2.9-0.4,3.6c12.2-5.9,17-8.2,17-8.2c1.6,4,3.9,9.8,6.5,17
			c0.1,0.3,0.5,1.4,1,2.7c1.7,4.8,4,11.7,6.8,20.8c6-1.9,13.4-3.6,22-4.5c11.8-1.2,21.9-0.4,29.5,0.8c-0.3-0.3-1.2-1.5-1.2-3.2
			c0-1.3,0.5-2.3,0.8-2.7c-7.8-1-17.7-1.5-29.1-0.1c-6.3,0.8-11.9,2-16.8,3.4c-0.6-1.2-1.4-3-2.4-5.2c-2.8-6.1-6.4-14.8-9.6-25.4
			c-0.9-3.1-2.1-7.2-3.3-12.1C422.4,195.5,415.2,199,408,202.5"/>
	</defs>
	<clipPath id="SVGID_7_">
		<use xlink:href="#SVGID_6_"  style="overflow:visible;"/>
	</clipPath>
	
		<linearGradient id="SVGID_8_" gradientUnits="userSpaceOnUse" x1="-0.7988" y1="479.8894" x2="1.464528e-002" y2="479.8894" gradientTransform="matrix(93.3573 0 0 -93.3573 482.6075 45017.7109)">
		<stop  offset="0" style="stop-color:#AA0004"/>
		<stop  offset="9.968600e-002" style="stop-color:#AA0004"/>
		<stop  offset="0.1779" style="stop-color:#C8000A"/>
		<stop  offset="0.2611" style="stop-color:#E0000F"/>
		<stop  offset="0.3491" style="stop-color:#F10012"/>
		<stop  offset="0.4442" style="stop-color:#FC0014"/>
		<stop  offset="0.5592" style="stop-color:#FF0015"/>
		<stop  offset="1" style="stop-color:#FF0015"/>
	</linearGradient>
	<rect x="408" y="192" class="st2" width="83.3" height="49.1"/>
</g>
<g>
	<defs>
		<rect id="SVGID_9_" x="15.5" y="48.8" width="520.6" height="390.4"/>
	</defs>
	<clipPath id="SVGID_10_">
		<use xlink:href="#SVGID_9_"  style="overflow:visible;"/>
	</clipPath>
	<path class="st3" d="M408.5,208.8c12.2-5.9,17-8.2,17-8.2c1.6,4,3.9,9.8,6.5,17c0.1,0.3,0.5,1.4,1,2.7c1.7,4.8,4,11.7,6.8,20.8
		c6-1.9,13.4-3.6,22-4.5c11.8-1.2,21.9-0.4,29.5,0.8c-0.3-0.3-1.2-1.5-1.2-3.2c0-1.3,0.5-2.3,0.8-2.7c-7.8-1-17.7-1.5-29.1-0.1
		c-6.3,0.8-11.9,2-16.8,3.4c-0.6-1.2-1.4-3-2.4-5.2c-2.8-6.1-6.4-14.8-9.6-25.4c-0.9-3.1-2.1-7.2-3.3-12.1
		c-7.2,3.5-14.3,7-21.5,10.5c0.3,0.6,0.7,1.5,0.9,2.7C409.1,206.8,408.7,208.1,408.5,208.8z"/>
</g>
<g>
	<defs>
		<path id="SVGID_11_" d="M457.6,213.3c-1.3-0.9-2.1-2-2.5-3.3c-0.3-1.4-0.1-2.7,0.7-4.1c0.8-1.4,1.9-2.3,3.6-2.7
			c1.6-0.4,3.1-0.1,4.3,0.8c1.2,0.9,2,2.1,2.3,3.4c0.3,1.3,0.1,2.7-0.7,4c-0.8,1.4-1.9,2.2-3.4,2.6c-0.4,0.1-0.9,0.2-1.3,0.2
			C459.5,214.2,458.6,213.9,457.6,213.3 M467.6,189.9c-3,0.7-4.4,2.2-4.1,4.6c-0.4-0.3-0.9-0.7-1.4-1c-0.6-0.3-1.5-0.6-2.7-0.8
			c-1.3-0.2-2.6-0.2-4,0.1c-3.7,0.8-6.7,3.2-9.1,7.2c-2.3,4-3,8.1-2,12.4c1,4.3,3.4,7.8,7.2,10.4c3.8,2.6,7.5,3.4,11.1,2.6
			c3.6-0.8,5.9-2.5,6.9-5.1c0.4,1,1,1.8,1.9,2.1c0.9,0.4,2.5,0.3,4.7-0.2c2.3-0.5,3.6-1.4,3.9-2.6c0.1-0.7,0.2-1.3,0.2-1.8
			c0-0.5-0.2-1.2-0.4-2.2l-5-21.8c-0.2-1-0.4-1.7-0.6-2.1c-0.2-0.5-0.5-1-0.9-1.5c-0.5-0.6-1.1-0.9-1.9-0.9c-0.1,0-0.3,0-0.4,0
			C470.1,189.4,469,189.6,467.6,189.9"/>
	</defs>
	<clipPath id="SVGID_12_">
		<use xlink:href="#SVGID_11_"  style="overflow:visible;"/>
	</clipPath>
	
		<linearGradient id="SVGID_13_" gradientUnits="userSpaceOnUse" x1="-1.9068" y1="480.5399" x2="-1.0934" y2="480.5399" gradientTransform="matrix(38.9618 -15.7748 -15.7748 -38.9618 8096.1992 18908.6113)">
		<stop  offset="0" style="stop-color:#AA0004"/>
		<stop  offset="7.541900e-002" style="stop-color:#AA0004"/>
		<stop  offset="0.1453" style="stop-color:#AA0004"/>
		<stop  offset="0.2908" style="stop-color:#C8000A"/>
		<stop  offset="0.4455" style="stop-color:#E0000F"/>
		<stop  offset="0.6091" style="stop-color:#F10012"/>
		<stop  offset="0.786" style="stop-color:#FC0014"/>
		<stop  offset="1" style="stop-color:#FF0015"/>
	</linearGradient>
	<polygon class="st4" points="430.5,194.6 475,176.6 493,221 448.5,239.1 	"/>
	<use xlink:href="#SVGID_11_"  style="overflow:visible;fill:none;stroke:#000000;stroke-miterlimit:10;"/>
</g>
<g>
	<defs>
		<rect id="SVGID_14_" x="15.5" y="48.8" width="520.6" height="390.4"/>
	</defs>
	<clipPath id="SVGID_15_">
		<use xlink:href="#SVGID_14_"  style="overflow:visible;"/>
	</clipPath>
	<path class="st5" d="M463.5,194.5c-0.3-2.4,1.1-3.9,4.1-4.6c1.6-0.4,2.8-0.5,3.7-0.5c0.8,0.1,1.5,0.4,1.9,0.9
		c0.5,0.6,0.8,1.1,0.9,1.5c0.2,0.5,0.4,1.2,0.6,2.1l5,21.8c0.2,1,0.4,1.7,0.4,2.2c0,0.5,0,1.1-0.2,1.8c-0.3,1.2-1.6,2.1-3.9,2.6
		c-2.3,0.5-3.8,0.6-4.7,0.2c-0.9-0.4-1.5-1.1-1.9-2.1c-1,2.5-3.3,4.2-6.9,5.1c-3.6,0.8-7.3-0.1-11.1-2.6c-3.8-2.6-6.2-6-7.2-10.4
		c-1-4.3-0.3-8.5,2-12.4c2.3-4,5.4-6.4,9.1-7.2c1.4-0.3,2.8-0.4,4-0.1c1.3,0.2,2.2,0.5,2.7,0.8C462.7,193.8,463.1,194.1,463.5,194.5
		z M455.1,210c0.3,1.4,1.1,2.5,2.5,3.3c1.3,0.9,2.8,1.1,4.3,0.8c1.5-0.4,2.7-1.2,3.4-2.6c0.8-1.4,1-2.7,0.7-4
		c-0.3-1.3-1.1-2.5-2.3-3.4c-1.2-0.9-2.7-1.2-4.3-0.8c-1.6,0.4-2.8,1.3-3.6,2.7C455.1,207.3,454.8,208.6,455.1,210z"/>
</g>
<g>
	<defs>
		<path id="SVGID_16_" d="M453,249.2c6,0,6,9.4,0,9.4C447,258.6,447,249.2,453,249.2 M449.4,244.3c-5.3,0.9-8.9,5.9-8.1,11.3
			c0.9,5.3,5.9,8.9,11.3,8.1c5.3-0.9,8.9-5.9,8.1-11.3c-0.8-4.8-4.9-8.2-9.6-8.2C450.4,244.1,449.9,244.2,449.4,244.3"/>
	</defs>
	<clipPath id="SVGID_17_">
		<use xlink:href="#SVGID_16_"  style="overflow:visible;"/>
	</clipPath>
	
		<linearGradient id="SVGID_18_" gradientUnits="userSpaceOnUse" x1="-3.4123" y1="479.912" x2="-2.5989" y2="479.912" gradientTransform="matrix(24.0804 0 0 -24.0804 523.333 11810.7734)">
		<stop  offset="0" style="stop-color:#AA0004"/>
		<stop  offset="0.476" style="stop-color:#AA0004"/>
		<stop  offset="0.4902" style="stop-color:#C8000A"/>
		<stop  offset="0.5052" style="stop-color:#E0000F"/>
		<stop  offset="0.5212" style="stop-color:#F10012"/>
		<stop  offset="0.5384" style="stop-color:#FC0014"/>
		<stop  offset="0.5592" style="stop-color:#FF0015"/>
		<stop  offset="1" style="stop-color:#FF0015"/>
	</linearGradient>
	<rect x="440.4" y="244.1" class="st6" width="21.1" height="20.3"/>
</g>
<g>
	<defs>
		<rect id="SVGID_19_" x="15.5" y="48.8" width="520.6" height="390.4"/>
	</defs>
	<clipPath id="SVGID_20_">
		<use xlink:href="#SVGID_19_"  style="overflow:visible;"/>
	</clipPath>
	<path class="st7" d="M460.6,252.3c-0.9-5.3-5.9-8.9-11.3-8.1c-5.3,0.9-8.9,5.9-8.1,11.3c0.9,5.3,5.9,8.9,11.3,8.1
		C457.9,262.7,461.5,257.7,460.6,252.3z M453,258.6c-6,0-6-9.4,0-9.4C459.1,249.2,459.1,258.6,453,258.6z"/>
	<path class="st8" d="M451.2,249.6c-0.2,0-0.5,0-0.7,0c-2.5,0.2-4.4,2.4-4.2,4.8c0.2,2.5,2.4,4.4,4.8,4.2c0.3,0,0.5-0.1,0.8-0.1
		C447.6,257.5,447.4,251.1,451.2,249.6"/>
	<path class="st7" d="M451.2,249.6c-0.2,0-0.5,0-0.7,0c-2.5,0.2-4.4,2.4-4.2,4.8c0.2,2.5,2.4,4.4,4.8,4.2c0.3,0,0.5-0.1,0.8-0.1
		C447.6,257.5,447.4,251.1,451.2,249.6z"/>
</g>
<g>
	<defs>
		<path id="SVGID_21_" d="M453,249.2c6,0,6,9.4,0,9.4C447,258.6,447,249.2,453,249.2 M451.6,243.7c-5.3,0.9-8.9,5.9-8.1,11.3
			c0.9,5.3,5.9,8.9,11.3,8.1c5.3-0.9,8.9-5.9,8.1-11.3c-0.8-4.8-4.9-8.2-9.6-8.2C452.7,243.6,452.2,243.7,451.6,243.7"/>
	</defs>
	<clipPath id="SVGID_22_">
		<use xlink:href="#SVGID_21_"  style="overflow:visible;"/>
	</clipPath>
	
		<linearGradient id="SVGID_23_" gradientUnits="userSpaceOnUse" x1="0.7471" y1="483.3259" x2="1.5605" y2="483.3259" gradientTransform="matrix(-5.4075 -24.494 -24.494 5.4075 12297.8867 -2332.3162)">
		<stop  offset="0" style="stop-color:#AA0004"/>
		<stop  offset="9.968600e-002" style="stop-color:#AA0004"/>
		<stop  offset="0.1779" style="stop-color:#C8000A"/>
		<stop  offset="0.2611" style="stop-color:#E0000F"/>
		<stop  offset="0.3491" style="stop-color:#F10012"/>
		<stop  offset="0.4442" style="stop-color:#FC0014"/>
		<stop  offset="0.5592" style="stop-color:#FF0015"/>
		<stop  offset="1" style="stop-color:#FF0015"/>
	</linearGradient>
	<polygon class="st9" points="443.7,268.4 438.4,244.6 462.8,239.2 468.1,263 	"/>
</g>
<g>
	<defs>
		<rect id="SVGID_24_" x="15.5" y="48.8" width="520.6" height="390.4"/>
	</defs>
	<clipPath id="SVGID_25_">
		<use xlink:href="#SVGID_24_"  style="overflow:visible;"/>
	</clipPath>
	<path class="st10" d="M462.9,251.8c-0.9-5.3-5.9-8.9-11.3-8.1c-5.3,0.9-8.9,5.9-8.1,11.3c0.9,5.3,5.9,8.9,11.3,8.1
		C460.2,262.2,463.8,257.1,462.9,251.8z M453,258.6c-6,0-6-9.4,0-9.4C459.1,249.2,459.1,258.6,453,258.6z"/>
	<path class="st11" d="M456.3,250.5c1.7,1.8,1.7,5,0,6.8c0.9-0.9,1.5-2,1.5-3.4C457.7,252.5,457.2,251.4,456.3,250.5"/>
	<path class="st10" d="M456.3,250.5c1.7,1.8,1.7,5,0,6.8c0.9-0.9,1.5-2,1.5-3.4C457.7,252.5,457.2,251.4,456.3,250.5z"/>
	<path class="st11" d="M449.4,251c-0.6,0.8-1,1.8-1,2.9c0,1.1,0.4,2.1,1,2.9C448.2,255.1,448.2,252.6,449.4,251"/>
	<path class="st10" d="M449.4,251c-0.6,0.8-1,1.8-1,2.9c0,1.1,0.4,2.1,1,2.9C448.2,255.1,448.2,252.6,449.4,251z"/>
</g>
<g>
	<defs>
		<path id="SVGID_26_" d="M479.5,247.9c6,0,6,9.4,0,9.4C473.4,257.2,473.5,247.9,479.5,247.9 M475.8,242.9
			c-5.3,0.9-8.9,5.9-8.1,11.3c0.9,5.3,5.9,8.9,11.3,8.1c5.3-0.9,8.9-5.9,8.1-11.3c-0.8-4.8-4.9-8.2-9.6-8.2
			C476.9,242.8,476.3,242.8,475.8,242.9"/>
	</defs>
	<clipPath id="SVGID_27_">
		<use xlink:href="#SVGID_26_"  style="overflow:visible;"/>
	</clipPath>
	
		<linearGradient id="SVGID_28_" gradientUnits="userSpaceOnUse" x1="-3.6642" y1="479.8992" x2="-2.8508" y2="479.8992" gradientTransform="matrix(24.0804 0 0 -24.0804 555.84 11809.1143)">
		<stop  offset="0" style="stop-color:#AA0004"/>
		<stop  offset="0.476" style="stop-color:#AA0004"/>
		<stop  offset="0.4902" style="stop-color:#C8000A"/>
		<stop  offset="0.5052" style="stop-color:#E0000F"/>
		<stop  offset="0.5212" style="stop-color:#F10012"/>
		<stop  offset="0.5384" style="stop-color:#FC0014"/>
		<stop  offset="0.5592" style="stop-color:#FF0015"/>
		<stop  offset="1" style="stop-color:#FF0015"/>
	</linearGradient>
	<rect x="466.9" y="242.8" class="st12" width="21.1" height="20.3"/>
</g>
<g>
	<defs>
		<rect id="SVGID_29_" x="15.5" y="48.8" width="520.6" height="390.4"/>
	</defs>
	<clipPath id="SVGID_30_">
		<use xlink:href="#SVGID_29_"  style="overflow:visible;"/>
	</clipPath>
	<path class="st13" d="M487.1,251c-0.9-5.3-5.9-8.9-11.3-8.1c-5.3,0.9-8.9,5.9-8.1,11.3c0.9,5.3,5.9,8.9,11.3,8.1
		C484.3,261.3,487.9,256.3,487.1,251z M479.5,257.2c-6,0-6-9.4,0-9.4C485.5,247.9,485.5,257.2,479.5,257.2z"/>
	<path class="st14" d="M477.6,248.2c-0.2,0-0.5,0-0.7,0c-2.5,0.2-4.4,2.4-4.2,4.8c0.2,2.5,2.4,4.4,4.8,4.2c0.3,0,0.5-0.1,0.8-0.1
		C474.1,256.1,473.8,249.8,477.6,248.2"/>
	<path class="st13" d="M477.6,248.2c-0.2,0-0.5,0-0.7,0c-2.5,0.2-4.4,2.4-4.2,4.8c0.2,2.5,2.4,4.4,4.8,4.2c0.3,0,0.5-0.1,0.8-0.1
		C474.1,256.1,473.8,249.8,477.6,248.2z"/>
</g>
<g>
	<defs>
		<path id="SVGID_31_" d="M479.5,247.9c6,0,6,9.4,0,9.4C473.4,257.2,473.5,247.9,479.5,247.9 M478.1,242.4
			c-5.3,0.9-8.9,5.9-8.1,11.3c0.9,5.3,5.9,8.9,11.3,8.1c5.3-0.9,8.9-5.9,8.1-11.3c-0.8-4.8-4.9-8.2-9.6-8.2
			C479.2,242.3,478.6,242.3,478.1,242.4"/>
	</defs>
	<clipPath id="SVGID_32_">
		<use xlink:href="#SVGID_31_"  style="overflow:visible;"/>
	</clipPath>
	
		<linearGradient id="SVGID_33_" gradientUnits="userSpaceOnUse" x1="0.7872" y1="483.5647" x2="1.6006" y2="483.5647" gradientTransform="matrix(-5.4075 -24.494 -24.494 5.4075 12330.3936 -2333.9753)">
		<stop  offset="0" style="stop-color:#AA0004"/>
		<stop  offset="9.968600e-002" style="stop-color:#AA0004"/>
		<stop  offset="0.1779" style="stop-color:#C8000A"/>
		<stop  offset="0.2611" style="stop-color:#E0000F"/>
		<stop  offset="0.3491" style="stop-color:#F10012"/>
		<stop  offset="0.4442" style="stop-color:#FC0014"/>
		<stop  offset="0.5592" style="stop-color:#FF0015"/>
		<stop  offset="1" style="stop-color:#FF0015"/>
	</linearGradient>
	<polygon class="st15" points="470.1,267 464.9,243.2 489.3,237.8 494.5,261.7 	"/>
</g>
<g>
	<defs>
		<rect id="SVGID_34_" x="15.5" y="48.8" width="520.6" height="390.4"/>
	</defs>
	<clipPath id="SVGID_35_">
		<use xlink:href="#SVGID_34_"  style="overflow:visible;"/>
	</clipPath>
	<path class="st16" d="M489.3,250.5c-0.9-5.3-5.9-8.9-11.3-8.1c-5.3,0.9-8.9,5.9-8.1,11.3c0.9,5.3,5.9,8.9,11.3,8.1
		C486.6,260.8,490.2,255.8,489.3,250.5z M479.5,257.2c-6,0-6-9.4,0-9.4C485.5,247.9,485.5,257.2,479.5,257.2z"/>
	<path class="st17" d="M482.7,249.1c1.7,1.8,1.7,5,0,6.8c0.9-0.9,1.5-2,1.5-3.4C484.2,251.2,483.6,250,482.7,249.1"/>
	<path class="st16" d="M482.7,249.1c1.7,1.8,1.7,5,0,6.8c0.9-0.9,1.5-2,1.5-3.4C484.2,251.2,483.6,250,482.7,249.1z"/>
	<path class="st17" d="M475.8,249.6c-0.6,0.8-1,1.8-1,2.9c0,1.1,0.4,2.1,1,2.9C474.7,253.7,474.7,251.3,475.8,249.6"/>
	<path class="st16" d="M475.8,249.6c-0.6,0.8-1,1.8-1,2.9c0,1.1,0.4,2.1,1,2.9C474.7,253.7,474.7,251.3,475.8,249.6z"/>
</g>
<g>
	<path d="M129.3,235.8c0.2-1.8,1.4-2.6,3.7-2.6c1.2,0,2.1,0.1,2.7,0.3c0.6,0.2,1,0.5,1.2,1s0.4,0.9,0.4,1.2c0,0.4,0.1,0.9,0.1,1.6
		v16.4c0,0.7,0,1.3-0.1,1.6c0,0.4-0.2,0.8-0.4,1.2c-0.4,0.8-1.5,1.2-3.2,1.2c-1.7,0-2.8-0.2-3.4-0.6c-0.6-0.4-0.9-1-1-1.9
		c-1.2,1.7-3.1,2.5-5.8,2.5c-2.7,0-5.2-1.2-7.5-3.7c-2.3-2.5-3.5-5.3-3.5-8.6c0-3.3,1.2-6.1,3.5-8.6c2.3-2.5,4.9-3.7,7.7-3.7
		c1.1,0,2,0.2,2.9,0.6c0.9,0.4,1.5,0.7,1.8,1.1C128.8,235.2,129.1,235.5,129.3,235.8z M120.7,245.6c0,1,0.4,2,1.2,2.8
		c0.8,0.8,1.8,1.2,3,1.2c1.2,0,2.1-0.4,2.9-1.3c0.8-0.8,1.2-1.8,1.2-2.8s-0.4-2-1.1-2.8c-0.7-0.9-1.7-1.3-3-1.3
		c-1.2,0-2.2,0.4-3,1.3C121.1,243.6,120.7,244.6,120.7,245.6z"/>
	<path d="M152.2,257.9c-3.2,0-5.8-1.2-7.9-3.6c-2.1-2.4-3.1-5.3-3.1-8.8v-8.2c0-0.8,0-1.3,0.1-1.6c0-0.3,0.2-0.8,0.4-1.2
		c0.4-0.8,1.7-1.3,3.7-1.3c2.2,0,3.5,0.6,3.9,1.8c0.2,0.5,0.3,1.3,0.3,2.4v8.2c0,1.3,0.4,2.3,1.1,3c0.7,0.7,1.7,1.1,3,1.1
		c1.2,0,2.2-0.4,3-1.1c0.8-0.8,1.2-1.7,1.2-3v-8.3c0-0.7,0-1.3,0.1-1.6c0-0.4,0.2-0.8,0.4-1.2c0.4-0.8,1.6-1.2,3.6-1.2
		c2,0,3.2,0.4,3.6,1.3c0.2,0.5,0.4,0.9,0.4,1.2c0,0.4,0.1,0.9,0.1,1.6v16.6c0,0.7,0,1.2-0.1,1.6c0,0.4-0.2,0.8-0.4,1.2
		c-0.5,0.8-1.7,1.2-3.6,1.2c-1.9,0-3.1-0.4-3.5-1.1c-0.3-0.5-0.5-1.2-0.5-1.9c-0.1,0.2-0.4,0.5-0.8,0.9c-0.4,0.4-0.9,0.8-1.3,1
		C154.6,257.5,153.5,257.9,152.2,257.9z"/>
	<path d="M184.2,245.5l6.2,5.2c0.8,0.7,1.3,1.2,1.5,1.5c0.2,0.3,0.3,0.7,0.3,1c0,0.8-0.5,1.8-1.5,3.1c-1.1,1.3-2,2-2.8,2
		c-0.7,0-1.6-0.5-2.9-1.4l-0.5-0.3c-0.7-0.6-1.8-1.6-3.3-3.1c-1.5-1.5-2.6-2.5-3.4-3.2v3.6c0,0.7,0,1.3-0.1,1.6
		c0,0.4-0.2,0.8-0.4,1.2c-0.4,0.8-1.6,1.2-3.6,1.2c-2,0-3.2-0.4-3.6-1.3c-0.2-0.5-0.4-0.9-0.4-1.2s-0.1-0.9-0.1-1.6v-28.1
		c0-0.7,0-1.3,0.1-1.6c0-0.4,0.2-0.8,0.4-1.2c0.4-0.8,1.7-1.3,3.7-1.3c1.5,0,2.6,0.3,3.2,0.8c0.5,0.4,0.8,1.1,0.8,2.1
		c0,0.3,0,0.7,0,1.3v14.9c0.6-0.5,1.4-1.3,2.6-2.4c1.1-1.1,2-1.9,2.6-2.4l0.6-0.4c1.1-0.8,2-1.3,2.8-1.3c0.8,0,1.7,0.6,2.7,1.9
		c1,1.3,1.5,2.3,1.5,3c0,0.7-0.6,1.6-1.7,2.5L184.2,245.5z"/>
	<path d="M201.2,245.6c0,1.3,0.4,2.4,1.3,3.1c0.9,0.7,1.8,1.1,2.8,1.1s1.9-0.3,2.8-0.9c0.9-0.6,1.6-0.9,2.1-0.9
		c0.9,0,2.1,0.8,3.4,2.5c0.7,0.9,1.1,1.7,1.1,2.4c0,1.2-0.9,2.3-2.6,3.3c-1.8,1.3-4,1.9-6.6,1.9c-2.9,0-5.7-1-8.4-3.1
		c-1.3-1-2.3-2.3-3.1-4c-0.8-1.7-1.2-3.5-1.2-5.5s0.4-3.9,1.2-5.5c0.8-1.6,1.9-3,3.1-4c2.6-2.1,5.4-3.1,8.3-3.1
		c1.2,0,2.3,0.2,3.5,0.5s2,0.7,2.5,1l0.8,0.5c0.6,0.4,1,0.7,1.3,0.9c0.8,0.6,1.2,1.3,1.2,2.1s-0.3,1.7-1,2.7
		c-1.1,1.7-2.2,2.6-3.2,2.6c-0.6,0-1.4-0.3-2.5-1c-0.6-0.5-1.4-0.8-2.4-0.8c-1,0-2,0.4-2.9,1.1C201.6,243.2,201.2,244.2,201.2,245.6
		z"/>
	<path d="M225.4,228.6c-0.2,0.5-0.6,0.8-1.2,1c-0.6,0.2-1.4,0.3-2.4,0.3s-1.8-0.1-2.4-0.3c-0.6-0.2-1-0.5-1.2-1s-0.4-0.9-0.4-1.2
		c0-0.4-0.1-0.9-0.1-1.6c0-0.7,0-1.3,0.1-1.6c0-0.4,0.2-0.8,0.4-1.2c0.4-0.8,1.7-1.3,3.7-1.3c2,0,3.2,0.4,3.6,1.3
		c0.3,0.5,0.4,0.9,0.4,1.2c0,0.4,0.1,0.9,0.1,1.6c0,0.7,0,1.3-0.1,1.6C225.8,227.8,225.7,228.2,225.4,228.6z M217.7,237.3
		c0-0.7,0-1.3,0.1-1.6c0-0.4,0.2-0.8,0.4-1.2c0.4-0.8,1.7-1.2,3.7-1.2c1.5,0,2.6,0.3,3.2,0.8c0.5,0.4,0.8,1.1,0.8,2
		c0,0.3,0,0.8,0,1.4v16.4c0,0.7,0,1.3-0.1,1.6c0,0.4-0.2,0.8-0.4,1.2c-0.4,0.8-1.6,1.2-3.6,1.2c-2,0-3.2-0.4-3.6-1.3
		c-0.2-0.5-0.4-0.9-0.4-1.2s-0.1-0.9-0.1-1.6V237.3z"/>
	<path d="M231.5,233.3c0.6-0.2,1.4-0.3,2.3-0.3c1,0,1.7,0.1,2.3,0.3c0.6,0.2,1,0.5,1.2,1c0.2,0.5,0.4,0.9,0.4,1.2
		c0,0.4,0.1,0.9,0.1,1.6v19.4c0,3.7-1.3,6.6-3.8,8.8s-5.3,3.3-8.4,3.3c-0.7,0-1.3,0-1.6-0.1c-0.3,0-0.7-0.2-1.2-0.4
		c-0.8-0.4-1.2-1.6-1.2-3.4s0.3-3,1-3.5c0.7-0.5,1.6-0.7,2.7-0.7s2.2-0.3,3-0.9c0.9-0.6,1.3-1.8,1.3-3.4v-19.4
		c0-1.1,0.1-1.9,0.4-2.4C230.4,233.9,230.9,233.5,231.5,233.3z M236,229.5c-0.6,0.2-1.4,0.3-2.3,0.3c-1,0-1.7-0.1-2.3-0.3
		c-0.6-0.2-1-0.5-1.2-1c-0.2-0.5-0.4-0.9-0.4-1.2c0-0.4-0.1-0.9-0.1-1.6c0-0.7,0-1.3,0.1-1.6c0-0.3,0.2-0.7,0.4-1.2
		c0.4-0.8,1.6-1.2,3.6-1.2c1.9,0,3.1,0.4,3.5,1.2c0.2,0.4,0.4,0.8,0.4,1.1c0,0.3,0.1,0.9,0.1,1.5v0.3c0,0.7,0,1.2-0.1,1.6
		c0,0.3-0.2,0.7-0.4,1.2C237,229,236.6,229.3,236,229.5z"/>
	<path d="M265.4,242.6c0,1.9-0.5,3.4-1.4,4.3c-1,0.9-2,1.4-3.2,1.4h-11.1c0,0.9,0.5,1.6,1.6,2.2c1,0.6,2.1,0.9,3.1,0.9
		c1.8,0,3.2-0.2,4.3-0.6l0.5-0.2c0.8-0.3,1.4-0.5,1.9-0.5c1,0,1.9,0.7,2.6,2.1c0.4,0.8,0.6,1.6,0.6,2.2c0,2.8-3.3,4.2-10,4.2
		c-2.3,0-4.4-0.4-6.2-1.2c-1.8-0.8-3.2-1.9-4.2-3.2c-2-2.5-3-5.4-3-8.5c0-3.9,1.3-7.1,3.8-9.5c2.6-2.4,5.7-3.5,9.6-3.5
		c4.4,0,7.5,1.5,9.6,4.6C264.9,238.9,265.4,240.7,265.4,242.6z M255.5,244c1.2,0,1.8-0.5,1.8-1.5c0-0.7-0.3-1.3-0.8-1.7
		c-0.5-0.4-1.3-0.7-2.3-0.7c-1,0-2,0.4-3,1.2c-1,0.8-1.5,1.7-1.5,2.7H255.5z"/>
	<path d="M282.3,251.4h-11.2c-1.8,0-2.8-0.5-3.1-1.6c-0.2-0.6-0.2-1.3-0.2-2.2c0-0.9,0.1-1.6,0.3-2.1c0.2-0.5,0.5-0.9,0.9-1.1
		c0.6-0.3,1.3-0.4,2.3-0.4h11.2c1.8,0,2.8,0.5,3.1,1.5c0.2,0.6,0.3,1.3,0.3,2.2c0,0.9-0.1,1.6-0.3,2.1c-0.2,0.5-0.4,0.9-0.8,1.2
		C284.1,251.3,283.3,251.4,282.3,251.4z"/>
	<path d="M302.4,233.2c2.8,0,5.3,1.2,7.7,3.7c2.3,2.5,3.5,5.3,3.5,8.6c0,3.3-1.2,6.1-3.5,8.6c-2.3,2.5-4.8,3.7-7.5,3.7
		c-2.7,0-4.6-0.8-5.7-2.3c-0.3,1.5-1.6,2.3-4,2.3c-2,0-3.2-0.4-3.6-1.3c-0.2-0.5-0.4-0.9-0.4-1.2s-0.1-0.9-0.1-1.6v-28
		c0-0.7,0-1.3,0.1-1.6c0-0.4,0.2-0.8,0.4-1.2c0.4-0.8,1.7-1.3,3.7-1.3c2,0,3.2,0.4,3.6,1.3c0.3,0.5,0.4,0.9,0.4,1.2
		c0,0.4,0.1,0.9,0.1,1.6v9.8C298.3,234,300,233.2,302.4,233.2z M298.3,248.4c0.8,0.8,1.7,1.3,2.9,1.3c1.2,0,2.1-0.4,3-1.3
		c0.8-0.8,1.2-1.8,1.2-2.8s-0.4-2-1.1-2.8c-0.8-0.9-1.8-1.3-3-1.3c-1.3,0-2.2,0.4-3,1.3c-0.7,0.9-1.1,1.8-1.1,2.8
		S297.5,247.6,298.3,248.4z"/>
	<path d="M324.3,228.6c-0.2,0.5-0.7,0.8-1.2,1c-0.6,0.2-1.4,0.3-2.4,0.3s-1.8-0.1-2.4-0.3c-0.6-0.2-1-0.5-1.2-1
		c-0.2-0.5-0.4-0.9-0.4-1.2c0-0.4-0.1-0.9-0.1-1.6c0-0.7,0-1.3,0.1-1.6c0-0.4,0.2-0.8,0.4-1.2c0.4-0.8,1.7-1.3,3.7-1.3
		c2,0,3.2,0.4,3.6,1.3c0.3,0.5,0.4,0.9,0.4,1.2c0,0.4,0.1,0.9,0.1,1.6c0,0.7,0,1.3-0.1,1.6C324.7,227.8,324.6,228.2,324.3,228.6z
		 M316.6,237.3c0-0.7,0-1.3,0.1-1.6c0-0.4,0.2-0.8,0.4-1.2c0.4-0.8,1.7-1.2,3.7-1.2c1.5,0,2.6,0.3,3.2,0.8c0.5,0.4,0.8,1.1,0.8,2
		c0,0.3,0,0.8,0,1.4v16.4c0,0.7,0,1.3-0.1,1.6c0,0.4-0.2,0.8-0.4,1.2c-0.4,0.8-1.6,1.2-3.6,1.2c-2,0-3.2-0.4-3.6-1.3
		c-0.2-0.5-0.4-0.9-0.4-1.2s-0.1-0.9-0.1-1.6V237.3z"/>
	<path d="M342.3,233.3c3.1,0,5.7,1.2,7.8,3.6c2.1,2.4,3.1,5.3,3.1,8.7v8.3c0,0.7,0,1.3-0.1,1.6c0,0.4-0.2,0.8-0.4,1.2
		c-0.4,0.8-1.6,1.2-3.6,1.2c-1.9,0-3.1-0.4-3.6-1.2c-0.3-0.5-0.4-0.9-0.4-1.3s-0.1-0.9-0.1-1.7v-8.2c0-1.3-0.4-2.3-1.1-3
		c-0.7-0.7-1.6-1.1-2.7-1.1s-2.1,0.3-2.9,1c-0.8,0.7-1.3,1.4-1.5,2.3v9.1c0,0.7,0,1.3-0.1,1.6c0,0.4-0.2,0.8-0.4,1.2
		c-0.4,0.8-1.6,1.2-3.6,1.2c-2,0-3.2-0.4-3.6-1.3c-0.2-0.5-0.4-0.9-0.4-1.2s-0.1-0.9-0.1-1.6v-28.1c0-0.7,0-1.3,0.1-1.6
		c0-0.4,0.2-0.8,0.4-1.2c0.4-0.8,1.7-1.3,3.7-1.3c2,0,3.2,0.4,3.6,1.3c0.3,0.5,0.4,0.9,0.4,1.2c0,0.4,0.1,0.9,0.1,1.6v10.4
		C338.4,234.2,340.2,233.3,342.3,233.3z"/>
	<path d="M364.3,250.2c0.5,0.5,0.8,1.6,0.8,3.3v0.2c0,0.8,0,1.3-0.1,1.7s-0.2,0.8-0.5,1.3c-0.5,0.9-1.7,1.4-3.5,1.4
		s-3.1-0.3-3.8-0.9c-0.6-0.6-0.9-1.7-0.9-3.4v-0.2c0-0.7,0-1.3,0.1-1.6s0.2-0.8,0.4-1.3c0.5-0.9,1.7-1.4,3.5-1.4
		S363.6,249.5,364.3,250.2z"/>
	<path d="M381.7,233.2c2.8,0,5.3,1.2,7.7,3.7c2.3,2.5,3.5,5.3,3.5,8.6c0,3.3-1.2,6.1-3.5,8.6c-2.3,2.5-4.8,3.7-7.5,3.7
		c-2.7,0-4.6-0.8-5.7-2.3c-0.3,1.5-1.6,2.3-4,2.3c-2,0-3.2-0.4-3.6-1.3c-0.2-0.5-0.4-0.9-0.4-1.2s-0.1-0.9-0.1-1.6v-28
		c0-0.7,0-1.3,0.1-1.6c0-0.4,0.2-0.8,0.4-1.2c0.4-0.8,1.7-1.3,3.7-1.3c2,0,3.2,0.4,3.6,1.3c0.3,0.5,0.4,0.9,0.4,1.2
		c0,0.4,0.1,0.9,0.1,1.6v9.8C377.6,234,379.4,233.2,381.7,233.2z M377.6,248.4c0.8,0.8,1.7,1.3,2.9,1.3c1.2,0,2.1-0.4,3-1.3
		s1.2-1.8,1.2-2.8s-0.4-2-1.1-2.8c-0.8-0.9-1.8-1.3-3-1.3c-1.3,0-2.2,0.4-3,1.3c-0.7,0.9-1.1,1.8-1.1,2.8S376.8,247.6,377.6,248.4z"
		/>
	<path d="M412,235.8c0.2-1.8,1.4-2.6,3.7-2.6c1.2,0,2.1,0.1,2.7,0.3s1,0.5,1.2,1c0.2,0.5,0.4,0.9,0.4,1.2c0,0.4,0.1,0.9,0.1,1.6
		v16.4c0,0.7,0,1.3-0.1,1.6s-0.2,0.8-0.4,1.2c-0.4,0.8-1.5,1.2-3.2,1.2c-1.7,0-2.8-0.2-3.4-0.6c-0.6-0.4-0.9-1-1-1.9
		c-1.2,1.7-3.1,2.5-5.8,2.5c-2.7,0-5.2-1.2-7.5-3.7c-2.3-2.5-3.5-5.3-3.5-8.6c0-3.3,1.2-6.1,3.5-8.6c2.3-2.5,4.9-3.7,7.7-3.7
		c1.1,0,2,0.2,2.9,0.6c0.9,0.4,1.5,0.7,1.8,1.1C411.5,235.2,411.8,235.5,412,235.8z M403.4,245.6c0,1,0.4,2,1.2,2.8
		c0.8,0.8,1.8,1.2,3,1.2c1.2,0,2.1-0.4,2.9-1.3c0.8-0.8,1.2-1.8,1.2-2.8s-0.4-2-1.1-2.8c-0.7-0.9-1.7-1.3-3-1.3s-2.2,0.4-3,1.3
		C403.8,243.6,403.4,244.6,403.4,245.6z"/>
</g>
</svg>
