<svg id="Layer_1" data-name="Layer 1" xmlns="http://www.w3.org/2000/svg" xmlns:xlink="http://www.w3.org/1999/xlink" viewBox="0 0 500 113.16"><defs><style>.cls-1,.cls-11{fill:#fff;}.cls-1,.cls-10,.cls-2,.cls-3,.cls-4,.cls-5,.cls-6,.cls-7{stroke:#000;stroke-miterlimit:10;}.cls-10,.cls-2,.cls-3,.cls-4,.cls-5,.cls-6{stroke-width:0.75px;}.cls-2{fill:url(#linear-gradient);}.cls-3{fill:url(#linear-gradient-2);}.cls-4{fill:url(#linear-gradient-3);}.cls-5{fill:url(#linear-gradient-4);}.cls-6{fill:url(#linear-gradient-5);}.cls-7{stroke-width:2px;fill:url(#linear-gradient-7);}.cls-8{fill:#ea0000;}.cls-9{fill:url(#linear-gradient-8);}.cls-10{fill:none;}.cls-12{fill:url(#linear-gradient-9);}.cls-13{fill:url(#linear-gradient-10);}.cls-14{fill:url(#linear-gradient-11);}</style><linearGradient id="linear-gradient" x1="539.23" y1="202.53" x2="563.68" y2="173.9" gradientUnits="userSpaceOnUse"><stop offset="0.1" stop-color="#aa0004"/><stop offset="0.11" stop-color="#c8000a"/><stop offset="0.12" stop-color="#e0000f"/><stop offset="0.13" stop-color="#f20012"/><stop offset="0.15" stop-color="#fc0014"/><stop offset="0.16" stop-color="#ff0015"/></linearGradient><linearGradient id="linear-gradient-2" x1="510.01" y1="238.06" x2="510.01" y2="238.06" gradientUnits="userSpaceOnUse"><stop offset="0" stop-color="red"/><stop offset="0.09" stop-color="#f80000"/><stop offset="0.22" stop-color="#e30000"/><stop offset="0.38" stop-color="#c10000"/><stop offset="0.56" stop-color="#920000"/><stop offset="0.75" stop-color="#500"/><stop offset="0.97" stop-color="#0d0000"/><stop offset="1"/></linearGradient><linearGradient id="linear-gradient-3" x1="482.61" y1="206.2" x2="575.96" y2="206.2" gradientUnits="userSpaceOnUse"><stop offset="0.1" stop-color="#aa0004"/><stop offset="0.18" stop-color="#c8000a"/><stop offset="0.26" stop-color="#e0000f"/><stop offset="0.35" stop-color="#f20012"/><stop offset="0.44" stop-color="#fc0014"/><stop offset="0.56" stop-color="#ff0015"/></linearGradient><linearGradient id="linear-gradient-4" x1="458.94" y1="232.38" x2="458.94" y2="232.38" xlink:href="#linear-gradient-2"/><linearGradient id="linear-gradient-5" x1="459.2" y1="232.38" x2="459.2" y2="232.38" xlink:href="#linear-gradient-2"/><linearGradient id="linear-gradient-7" x1="524.31" y1="206.96" x2="563.27" y2="191.19" gradientUnits="userSpaceOnUse"><stop offset="0.08" stop-color="#aa0004"/><stop offset="0.15" stop-color="#aa0004"/><stop offset="0.29" stop-color="#c8000a"/><stop offset="0.45" stop-color="#e0000f"/><stop offset="0.61" stop-color="#f20012"/><stop offset="0.79" stop-color="#fc0014"/><stop offset="1" stop-color="#ff0015"/></linearGradient><linearGradient id="linear-gradient-8" x1="523.33" y1="252.18" x2="547.41" y2="252.18" gradientUnits="userSpaceOnUse"><stop offset="0.48" stop-color="#aa0004"/><stop offset="0.49" stop-color="#c8000a"/><stop offset="0.51" stop-color="#e0000f"/><stop offset="0.52" stop-color="#f20012"/><stop offset="0.54" stop-color="#fc0014"/><stop offset="0.56" stop-color="#ff0015"/></linearGradient><linearGradient id="linear-gradient-9" x1="540.78" y1="263.3" x2="535.38" y2="238.8" xlink:href="#linear-gradient-3"/><linearGradient id="linear-gradient-10" x1="555.84" y1="250.52" x2="579.92" y2="250.52" xlink:href="#linear-gradient-8"/><linearGradient id="linear-gradient-11" x1="573.29" y1="261.64" x2="567.88" y2="237.15" xlink:href="#linear-gradient-3"/></defs><path class="cls-1" d="M535.51,81.5" transform="translate(-85.95 -171.87)"/><path d="M108.54,223q.38-3.54,5-3.54a12.91,12.91,0,0,1,3.67.38,2.6,2.6,0,0,1,1.67,1.33,5.24,5.24,0,0,1,.57,1.67,18.87,18.87,0,0,1,.1,2.18v22.15a18.87,18.87,0,0,1-.1,2.18,5.62,5.62,0,0,1-.54,1.67c-.59,1.1-2,1.65-4.33,1.65s-3.84-.28-4.62-.85a3.44,3.44,0,0,1-1.36-2.5q-2.34,3.34-7.81,3.35t-10.15-5A16.42,16.42,0,0,1,86,236.08a16.26,16.26,0,0,1,4.72-11.57q4.71-5,10.34-5a9.79,9.79,0,0,1,3.92.76,8.86,8.86,0,0,1,2.47,1.42A9.9,9.9,0,0,1,108.54,223ZM97,236.18a5.22,5.22,0,0,0,1.65,3.76,5.37,5.37,0,0,0,4,1.68,5.06,5.06,0,0,0,3.9-1.71,5.49,5.49,0,0,0,1.55-3.76,5.86,5.86,0,0,0-1.49-3.83,4.94,4.94,0,0,0-4-1.77,5.15,5.15,0,0,0-4.05,1.77A5.77,5.77,0,0,0,97,236.18Z" transform="translate(-85.95 -171.87)"/><path d="M139.41,252.69a13.45,13.45,0,0,1-10.6-4.84,17.39,17.39,0,0,1-4.2-11.8V225a19.14,19.14,0,0,1,.09-2.21,5.61,5.61,0,0,1,.54-1.65q.89-1.71,4.93-1.71c3,0,4.68.81,5.19,2.41a10,10,0,0,1,.38,3.22v11.08a5.39,5.39,0,0,0,1.49,4,5.45,5.45,0,0,0,4,1.46,5.54,5.54,0,0,0,4-1.52,5.33,5.33,0,0,0,1.55-4v-11.2a16.72,16.72,0,0,1,.1-2.18,4.89,4.89,0,0,1,.6-1.68c.54-1.1,2.17-1.65,4.87-1.65s4.28.57,4.87,1.71a6.22,6.22,0,0,1,.54,1.68,19.26,19.26,0,0,1,.09,2.18v22.4a18.77,18.77,0,0,1-.09,2.12,4.8,4.8,0,0,1-.6,1.61c-.64,1.1-2.26,1.64-4.88,1.64s-4.15-.5-4.74-1.52a5,5,0,0,1-.63-2.59,6.42,6.42,0,0,1-1.14,1.27,15.16,15.16,0,0,1-1.71,1.39A8.41,8.41,0,0,1,139.41,252.69Z" transform="translate(-85.95 -171.87)"/><path d="M182.55,236.12l8.42,6.95a9.79,9.79,0,0,1,2,2,2.66,2.66,0,0,1,.41,1.33q0,1.51-2,4.11-2.15,2.66-3.8,2.66c-.92,0-2.21-.62-3.85-1.84l-.64-.44c-1-.8-2.46-2.21-4.49-4.21s-3.56-3.42-4.62-4.27v4.87a19.58,19.58,0,0,1-.09,2.19,5.4,5.4,0,0,1-.6,1.67c-.55,1.1-2.18,1.65-4.87,1.65s-4.28-.57-4.88-1.71a5.83,5.83,0,0,1-.53-1.68,16.72,16.72,0,0,1-.1-2.18V209.36a17,17,0,0,1,.1-2.19,5.87,5.87,0,0,1,.53-1.67c.6-1.14,2.24-1.71,4.94-1.71,2,0,3.46.36,4.3,1.07a3.55,3.55,0,0,1,1.14,2.79q.06.57.06,1.77v20.05c.76-.63,1.91-1.71,3.45-3.22s2.69-2.6,3.45-3.23l.76-.51a6.71,6.71,0,0,1,3.79-1.7q1.59,0,3.64,2.56t2.06,4c0,1-.78,2.11-2.34,3.42Z" transform="translate(-85.95 -171.87)"/><path d="M205.39,236.15a5.14,5.14,0,0,0,1.77,4.17,5.79,5.79,0,0,0,3.77,1.49,6.58,6.58,0,0,0,3.73-1.17,5.58,5.58,0,0,1,2.81-1.17q1.91,0,4.62,3.35a5.56,5.56,0,0,1,1.46,3.29q0,2.4-3.48,4.49a15,15,0,0,1-8.86,2.53,18.16,18.16,0,0,1-11.32-4.24,15,15,0,0,1-4.24-5.4A16.84,16.84,0,0,1,194,236a16.39,16.39,0,0,1,1.65-7.4,15.09,15.09,0,0,1,4.24-5.35,17.69,17.69,0,0,1,11.19-4.17,16.76,16.76,0,0,1,4.69.66,15.78,15.78,0,0,1,3.35,1.3l1,.63,1.77,1.2a3.63,3.63,0,0,1,1.65,2.88,6.88,6.88,0,0,1-1.33,3.64c-1.52,2.32-3,3.48-4.37,3.48a7.26,7.26,0,0,1-3.41-1.39,4.56,4.56,0,0,0-3.26-1.08,6.09,6.09,0,0,0-4,1.52A5.14,5.14,0,0,0,205.39,236.15Z" transform="translate(-85.95 -171.87)"/><path d="M238.07,213.31a2.73,2.73,0,0,1-1.68,1.3,13.62,13.62,0,0,1-6.39,0,2.71,2.71,0,0,1-1.68-1.33,5.74,5.74,0,0,1-.57-1.68,26.45,26.45,0,0,1,0-4.36,5.49,5.49,0,0,1,.54-1.62q.89-1.71,4.94-1.71c2.65,0,4.26.57,4.8,1.71a5,5,0,0,1,.6,1.68,23.81,23.81,0,0,1,0,4.36A5.11,5.11,0,0,1,238.07,213.31ZM227.66,225a19.38,19.38,0,0,1,.09-2.18,6.27,6.27,0,0,1,.54-1.67q.89-1.65,4.94-1.65c2,0,3.45.36,4.3,1.08a3.52,3.52,0,0,1,1.14,2.72q.06.63.06,1.83v22.14a17,17,0,0,1-.1,2.19,4.92,4.92,0,0,1-.6,1.67c-.54,1.1-2.17,1.65-4.87,1.65s-4.28-.57-4.87-1.71a6.28,6.28,0,0,1-.54-1.65,19.14,19.14,0,0,1-.09-2.21Z" transform="translate(-85.95 -171.87)"/><path d="M246.16,219.67a10.25,10.25,0,0,1,3.13-.38,9.92,9.92,0,0,1,3.1.38A2.67,2.67,0,0,1,254,221a5.5,5.5,0,0,1,.57,1.65,19.26,19.26,0,0,1,.09,2.18v26.07a14.88,14.88,0,0,1-5.12,11.83,16.86,16.86,0,0,1-11.26,4.42,18.41,18.41,0,0,1-2.15-.09,5.06,5.06,0,0,1-1.59-.54q-1.63-.89-1.64-4.62t1.36-4.68a6.34,6.34,0,0,1,3.67-.95A6.86,6.86,0,0,0,242,255c1.18-.85,1.77-2.36,1.77-4.56V224.35a6.79,6.79,0,0,1,.6-3.26A3,3,0,0,1,246.16,219.67Zm6.14-5.16a11.44,11.44,0,0,1-3.13.35,10.22,10.22,0,0,1-3.1-.38,2.69,2.69,0,0,1-1.62-1.3,5.14,5.14,0,0,1-.56-1.64,16.83,16.83,0,0,1-.1-2.18,16.27,16.27,0,0,1,.1-2.16,5.23,5.23,0,0,1,.53-1.58c.59-1.09,2.22-1.64,4.87-1.64s4.12.55,4.75,1.64a4.9,4.9,0,0,1,.54,1.52,17.82,17.82,0,0,1,.09,2.09v.38a17.82,17.82,0,0,1-.09,2.09,4.83,4.83,0,0,1-.6,1.58A2.72,2.72,0,0,1,252.3,214.51Z" transform="translate(-85.95 -171.87)"/><path d="M291.87,232.16q0,3.89-1.93,5.76a6,6,0,0,1-4.27,1.86h-15a3.46,3.46,0,0,0,2.08,3,8.36,8.36,0,0,0,4.18,1.2,17.39,17.39,0,0,0,5.76-.76l.69-.25a6.3,6.3,0,0,1,2.53-.7q2,0,3.48,2.85a7,7,0,0,1,.82,2.91q0,5.63-13.47,5.63a20.45,20.45,0,0,1-8.32-1.61,14.14,14.14,0,0,1-5.66-4.27,18.2,18.2,0,0,1-4-11.45q0-8,5.16-12.75a18.2,18.2,0,0,1,12.87-4.78q8.79,0,12.91,6.2A12.89,12.89,0,0,1,291.87,232.16ZM278.52,234c1.6,0,2.4-.68,2.4-2a2.84,2.84,0,0,0-1.1-2.34,5,5,0,0,0-3.17-.88,6.43,6.43,0,0,0-4.08,1.67,4.7,4.7,0,0,0-2,3.58Z" transform="translate(-85.95 -171.87)"/><path d="M314.64,244H299.59c-2.37,0-3.78-.71-4.24-2.15A11.15,11.15,0,0,1,295,239a8.77,8.77,0,0,1,.38-2.84,2.65,2.65,0,0,1,1.2-1.52,6.87,6.87,0,0,1,3-.57h15.06c2.36,0,3.75.69,4.17,2.09a9.13,9.13,0,0,1,.38,2.91,9.46,9.46,0,0,1-.35,2.87,2.58,2.58,0,0,1-1.1,1.55A7.22,7.22,0,0,1,314.64,244Z" transform="translate(-85.95 -171.87)"/><path d="M341.66,219.54q5.63,0,10.34,5a16.65,16.65,0,0,1,0,23.18q-4.68,5-10.06,5t-7.65-3q-.51,3.1-5.44,3.1-4,0-4.87-1.71a5.62,5.62,0,0,1-.54-1.67,18.87,18.87,0,0,1-.1-2.18V209.42a18.74,18.74,0,0,1,.1-2.18,5,5,0,0,1,.54-1.62q.89-1.71,4.93-1.71t4.81,1.71a5,5,0,0,1,.6,1.68,18.74,18.74,0,0,1,.1,2.18v13.16A8.76,8.76,0,0,1,341.66,219.54ZM336.12,240a5,5,0,0,0,3.89,1.71,5.73,5.73,0,0,0,5.63-5.5,5.67,5.67,0,0,0-1.52-3.83,5.1,5.1,0,0,0-4.05-1.74,5,5,0,0,0-4,1.77,5.86,5.86,0,0,0-1.49,3.83A5.47,5.47,0,0,0,336.12,240Z" transform="translate(-85.95 -171.87)"/><path d="M371.23,213.31a2.69,2.69,0,0,1-1.67,1.3,11.1,11.1,0,0,1-3.2.38,11,11,0,0,1-3.19-.38,2.68,2.68,0,0,1-1.68-1.33,5.21,5.21,0,0,1-.57-1.68,26.45,26.45,0,0,1,0-4.36,5,5,0,0,1,.54-1.62q.89-1.71,4.93-1.71t4.81,1.71a5,5,0,0,1,.6,1.68,23.81,23.81,0,0,1,0,4.36A4.92,4.92,0,0,1,371.23,213.31ZM360.83,225a19.38,19.38,0,0,1,.09-2.18,5.62,5.62,0,0,1,.54-1.67q.89-1.65,4.93-1.65c2,0,3.46.36,4.3,1.08a3.46,3.46,0,0,1,1.14,2.72,16.93,16.93,0,0,1,.07,1.83v22.14a19.07,19.07,0,0,1-.1,2.19,4.92,4.92,0,0,1-.6,1.67q-.82,1.65-4.87,1.65t-4.87-1.71a5.61,5.61,0,0,1-.54-1.65,19.14,19.14,0,0,1-.09-2.21Z" transform="translate(-85.95 -171.87)"/><path d="M395.43,219.6A13.42,13.42,0,0,1,406,224.41a17.23,17.23,0,0,1,4.21,11.77v11.13a17,17,0,0,1-.1,2.19,4.92,4.92,0,0,1-.6,1.67q-.83,1.65-4.87,1.65-3.86,0-4.81-1.65a5.33,5.33,0,0,1-.6-1.71,20.88,20.88,0,0,1-.09-2.27V236.12a5.48,5.48,0,0,0-1.46-4.05,5,5,0,0,0-3.7-1.46A6.13,6.13,0,0,0,390,232a4.85,4.85,0,0,0-2,3.07v12.27a17,17,0,0,1-.1,2.19,4.92,4.92,0,0,1-.6,1.67q-.82,1.65-4.87,1.65t-4.87-1.71a5.61,5.61,0,0,1-.54-1.65,19.14,19.14,0,0,1-.09-2.21V209.42a19.26,19.26,0,0,1,.09-2.18,5,5,0,0,1,.54-1.62q.89-1.71,4.93-1.71t4.81,1.71a5,5,0,0,1,.6,1.68,16.72,16.72,0,0,1,.1,2.18v14A9.36,9.36,0,0,1,395.43,219.6Z" transform="translate(-85.95 -171.87)"/><path d="M425,242.38c.71.72,1.07,2.19,1.07,4.43v.25a20.33,20.33,0,0,1-.09,2.25,5.18,5.18,0,0,1-.67,1.73q-.94,1.85-4.77,1.84c-2.56,0-4.24-.4-5.07-1.2s-1.23-2.32-1.23-4.56v-.25a17.46,17.46,0,0,1,.1-2.21A4.88,4.88,0,0,1,415,243q.94-1.9,4.77-1.9T425,242.38Z" transform="translate(-85.95 -171.87)"/><path d="M448.51,219.54q5.63,0,10.34,5a16.65,16.65,0,0,1,0,23.18q-4.68,5-10.06,5t-7.65-3q-.51,3.1-5.44,3.1-4,0-4.87-1.71a5.62,5.62,0,0,1-.54-1.67,16.83,16.83,0,0,1-.1-2.18V209.42a16.72,16.72,0,0,1,.1-2.18,5,5,0,0,1,.54-1.62q.88-1.71,4.93-1.71t4.81,1.71a5.19,5.19,0,0,1,.6,1.68,19.26,19.26,0,0,1,.09,2.18v13.16A8.78,8.78,0,0,1,448.51,219.54ZM443,240a5,5,0,0,0,3.89,1.71,5.73,5.73,0,0,0,5.63-5.5,5.67,5.67,0,0,0-1.52-3.83,5.1,5.1,0,0,0-4.05-1.74,5,5,0,0,0-4,1.77,5.86,5.86,0,0,0-1.49,3.83A5.47,5.47,0,0,0,443,240Z" transform="translate(-85.95 -171.87)"/><path d="M489.31,223q.38-3.54,5-3.54a12.91,12.91,0,0,1,3.67.38,2.6,2.6,0,0,1,1.67,1.33,5.24,5.24,0,0,1,.57,1.67,16.83,16.83,0,0,1,.1,2.18v22.15a16.83,16.83,0,0,1-.1,2.18,5.62,5.62,0,0,1-.54,1.67c-.59,1.1-2,1.65-4.33,1.65s-3.84-.28-4.62-.85a3.44,3.44,0,0,1-1.36-2.5q-2.34,3.34-7.81,3.35t-10.15-5a16.46,16.46,0,0,1-4.68-11.61,16.29,16.29,0,0,1,4.71-11.57q4.71-5,10.34-5a9.79,9.79,0,0,1,3.92.76,8.86,8.86,0,0,1,2.47,1.42A9.9,9.9,0,0,1,489.31,223ZM477.8,236.18a5.21,5.21,0,0,0,1.64,3.76,5.39,5.39,0,0,0,4,1.68,5,5,0,0,0,3.89-1.71,5.49,5.49,0,0,0,1.55-3.76,5.86,5.86,0,0,0-1.49-3.83,4.94,4.94,0,0,0-4-1.77,5.11,5.11,0,0,0-4,1.77A5.72,5.72,0,0,0,477.8,236.18Z" transform="translate(-85.95 -171.87)"/><path class="cls-1" d="M584.22,198.09" transform="translate(-85.95 -171.87)"/><path class="cls-2" d="M480.12,198.81c15-7.22,20.91-10.11,20.91-10.11,2,4.93,4.75,12,7.94,20.93l1.19,3.32c2.07,5.87,5,14.39,8.4,25.53a140,140,0,0,1,63.38-4.65,6.2,6.2,0,0,1-1.51-4,6.13,6.13,0,0,1,1-3.34,140.15,140.15,0,0,0-56.48,4.14c-.7-1.45-1.77-3.66-3-6.38a257.51,257.51,0,0,1-11.85-31.23c-1.16-3.77-2.63-8.84-4.11-14.92l-26.42,13a9.67,9.67,0,0,1,1.07,3.33A9.57,9.57,0,0,1,480.12,198.81Z" transform="translate(-85.95 -171.87)"/><path class="cls-3" d="M510,238.06" transform="translate(-85.95 -171.87)"/><path class="cls-4" d="M483.17,196.71c15-7.22,20.91-10.11,20.91-10.11,2,4.93,4.75,12,7.95,20.93l1.18,3.32c2.07,5.87,5,14.39,8.41,25.53A140,140,0,0,1,585,231.73a6,6,0,0,1-.54-7.31A140.06,140.06,0,0,0,528,228.56c-.71-1.45-1.77-3.66-3-6.38A260.92,260.92,0,0,1,513.13,191c-1.15-3.77-2.62-8.84-4.1-14.92l-26.42,13a9.46,9.46,0,0,1,.56,7.72Z" transform="translate(-85.95 -171.87)"/><path class="cls-5" d="M458.94,232.38" transform="translate(-85.95 -171.87)"/><path class="cls-6" d="M459.2,232.38" transform="translate(-85.95 -171.87)"/><path class="cls-5" d="M458.94,232.38" transform="translate(-85.95 -171.87)"/><path class="cls-7" d="M550.8,179.11q-.52-4.38,5.06-5.66a16.64,16.64,0,0,1,4.54-.56,3.28,3.28,0,0,1,2.39,1.15,6.63,6.63,0,0,1,1.15,1.86,21.12,21.12,0,0,1,.72,2.62l6.12,26.75a22.69,22.69,0,0,1,.49,2.67,7.26,7.26,0,0,1-.19,2.17q-.62,2.23-4.78,3.18c-2.78.64-4.71.72-5.81.25a4.21,4.21,0,0,1-2.34-2.64q-1.9,4.69-8.51,6.21T536,213.87a20.63,20.63,0,0,1-6.37-28q4.32-7.31,11.12-8.86a12.25,12.25,0,0,1,5-.17,10.91,10.91,0,0,1,3.38,1A11.57,11.57,0,0,1,550.8,179.11ZM540.53,198.2a6.5,6.5,0,0,0,3,4.09,6.67,6.67,0,0,0,5.28.92,6.19,6.19,0,0,0,4.23-3.14,6.75,6.75,0,0,0,.83-5,7.23,7.23,0,0,0-2.85-4.22,6.12,6.12,0,0,0-5.3-1,6.35,6.35,0,0,0-4.41,3.26A7.12,7.12,0,0,0,540.53,198.2Z" transform="translate(-85.95 -171.87)"/><path class="cls-8" d="M264.18,267a.88.88,0,0,1-.56.44,4.51,4.51,0,0,1-2.15,0,.92.92,0,0,1-.56-.45,1.68,1.68,0,0,1-.19-.56,6.53,6.53,0,0,1,0-.73,6.61,6.61,0,0,1,0-.74,1.71,1.71,0,0,1,.18-.54c.2-.38.75-.57,1.66-.57s1.43.19,1.61.57a1.52,1.52,0,0,1,.2.56,4.63,4.63,0,0,1,0,.74,4.49,4.49,0,0,1,0,.73A1.57,1.57,0,0,1,264.18,267Zm-3.49,3.94a6.53,6.53,0,0,1,0-.73,1.89,1.89,0,0,1,.18-.56c.2-.37.75-.56,1.66-.56a2.17,2.17,0,0,1,1.44.37,1.14,1.14,0,0,1,.38.91,4.78,4.78,0,0,1,0,.62v7.43a4.41,4.41,0,0,1,0,.73,1.56,1.56,0,0,1-.2.57c-.18.37-.73.55-1.63.55s-1.44-.19-1.64-.57a2,2,0,0,1-.18-.56,6.37,6.37,0,0,1,0-.74Z" transform="translate(-85.95 -171.87)"/><path class="cls-8" d="M271.69,276.49h3.64a2.64,2.64,0,0,1,1.22.21,1.1,1.1,0,0,1,.5.62,4.74,4.74,0,0,1,0,2.12.94.94,0,0,1-.45.57,2,2,0,0,1-.56.19,6.73,6.73,0,0,1-.74,0h-7.67a1.76,1.76,0,0,1-1.29-.55,1.8,1.8,0,0,1-.55-1.32,1.76,1.76,0,0,1,.55-1.31c.37-.36.93-.88,1.7-1.56l2.08-1.84,1-.9h-3c-.8,0-1.31-.13-1.52-.4a1.9,1.9,0,0,1-.37-1.23,4.51,4.51,0,0,1,.11-1.14,1.48,1.48,0,0,1,.26-.55,1,1,0,0,1,.42-.29,4.21,4.21,0,0,1,1.1-.11h6.91a1.85,1.85,0,0,1,1.3.53,1.81,1.81,0,0,1,.55,1.33,1.89,1.89,0,0,1-.64,1.41C275.84,272.72,274.31,274.11,271.69,276.49Z" transform="translate(-85.95 -171.87)"/><path class="cls-8" d="M284.69,269.05a4.72,4.72,0,0,1,3.48,1.68,5.6,5.6,0,0,1,0,7.79,4.64,4.64,0,0,1-3.38,1.67,3,3,0,0,1-2.57-1c-.11.69-.72,1-1.83,1-.89,0-1.43-.19-1.63-.58a1.89,1.89,0,0,1-.18-.56,5.91,5.91,0,0,1,0-.73V265.66a6.1,6.1,0,0,1,0-.74,1.71,1.71,0,0,1,.18-.54q.3-.57,1.65-.57c.9,0,1.43.19,1.62.57a1.73,1.73,0,0,1,.2.56,6.73,6.73,0,0,1,0,.74v4.42A3,3,0,0,1,284.69,269.05Zm-1.85,6.87a1.68,1.68,0,0,0,1.3.57,1.91,1.91,0,0,0,1.89-1.85,1.9,1.9,0,0,0-.51-1.28,1.71,1.71,0,0,0-1.36-.59,1.68,1.68,0,0,0-1.35.6,1.94,1.94,0,0,0-.49,1.28A1.85,1.85,0,0,0,282.84,275.92Z" transform="translate(-85.95 -171.87)"/><path class="cls-8" d="M292.6,270.44a5.83,5.83,0,0,1,8.13,0,5.83,5.83,0,0,1,.85,7.33,5.55,5.55,0,0,1-2.22,2,5.9,5.9,0,0,1-2.7.65,5.75,5.75,0,0,1-2.72-.69,6,6,0,0,1-2.22-2,5.29,5.29,0,0,1-.91-3.05A5.47,5.47,0,0,1,292.6,270.44Zm2.65,5.72a2.27,2.27,0,0,0,1.38.52,2.36,2.36,0,0,0,1.41-.53,1.86,1.86,0,0,0,.7-1.57,1.83,1.83,0,0,0-.66-1.55,2.27,2.27,0,0,0-1.42-.51,2.21,2.21,0,0,0-1.43.53,1.87,1.87,0,0,0-.66,1.56A1.84,1.84,0,0,0,295.25,276.16Z" transform="translate(-85.95 -171.87)"/><path class="cls-8" d="M311.48,269.16a1.41,1.41,0,0,1,.67.44,1.45,1.45,0,0,1,.27,1,3.47,3.47,0,0,1-.4,1.49,1.27,1.27,0,0,1-1.17.81,1.74,1.74,0,0,1-.74-.17,2.16,2.16,0,0,0-.92-.17,1.66,1.66,0,0,0-1.07.4,1.21,1.21,0,0,0-.5,1v4.46a6.41,6.41,0,0,1,0,.73,1.83,1.83,0,0,1-.21.57c-.21.37-.76.55-1.65.55a2.37,2.37,0,0,1-1.47-.36,1.26,1.26,0,0,1-.38-.91v-8.08a6.53,6.53,0,0,1,0-.73,1.71,1.71,0,0,1,.18-.54c.2-.39.75-.58,1.66-.58s1.38.17,1.59.49a1.21,1.21,0,0,1,.24.7,3.53,3.53,0,0,1,.3-.36,4.42,4.42,0,0,1,.86-.57,2.51,2.51,0,0,1,1.16-.36,6.53,6.53,0,0,1,.84.05A6.08,6.08,0,0,1,311.48,269.16Z" transform="translate(-85.95 -171.87)"/><path class="cls-8" d="M317.08,267a.88.88,0,0,1-.56.44,4.51,4.51,0,0,1-2.15,0,.92.92,0,0,1-.56-.45,1.68,1.68,0,0,1-.19-.56,6.53,6.53,0,0,1,0-.73,6.61,6.61,0,0,1,0-.74,1.71,1.71,0,0,1,.18-.54c.2-.38.75-.57,1.66-.57s1.43.19,1.61.57a1.52,1.52,0,0,1,.2.56,6.24,6.24,0,0,1,0,.74,6,6,0,0,1,0,.73A1.57,1.57,0,0,1,317.08,267Zm-3.49,3.94a6.53,6.53,0,0,1,0-.73,1.89,1.89,0,0,1,.18-.56c.2-.37.75-.56,1.66-.56a2.17,2.17,0,0,1,1.44.37,1.14,1.14,0,0,1,.38.91,4.78,4.78,0,0,1,0,.62v7.43a5.91,5.91,0,0,1,0,.73,1.56,1.56,0,0,1-.2.57c-.18.37-.73.55-1.63.55s-1.44-.19-1.64-.57a2,2,0,0,1-.18-.56,6.37,6.37,0,0,1,0-.74Z" transform="translate(-85.95 -171.87)"/><path class="cls-8" d="M324.46,279.23a.9.9,0,0,1-.4-.81,3.5,3.5,0,0,1,.81-1.67.81.81,0,0,1,.75-.37,3.21,3.21,0,0,1,1.42.52,3.22,3.22,0,0,0,1.61.52c.86,0,1.3-.17,1.3-.5s-.48-.47-1.43-.6a7,7,0,0,1-2.65-1,2.79,2.79,0,0,1-1-1.2,4.31,4.31,0,0,1-.41-1.94q0-3.36,4.61-3.36a7.55,7.55,0,0,1,3.11.72c.49.23.74.51.74.85a2.56,2.56,0,0,1-.47,1.26c-.31.49-.63.74-.95.74a3,3,0,0,1-1-.32,3.57,3.57,0,0,0-1.5-.32c-.83,0-1.25.16-1.25.47s.48.7,1.44.83a7.89,7.89,0,0,1,2.72.81,2.32,2.32,0,0,1,1,1,3.64,3.64,0,0,1,.42,1.83,3.87,3.87,0,0,1-.42,1.88,2.63,2.63,0,0,1-1.15,1.16,7.82,7.82,0,0,1-3.41.66A7.37,7.37,0,0,1,324.46,279.23Z" transform="translate(-85.95 -171.87)"/><path class="cls-8" d="M345.56,273.29a2.57,2.57,0,0,1-.65,1.94,2,2,0,0,1-1.43.62h-5a1.18,1.18,0,0,0,.7,1,2.8,2.8,0,0,0,1.41.4,5.86,5.86,0,0,0,1.93-.25l.23-.08a2.13,2.13,0,0,1,.85-.24q.69,0,1.17,1a2.27,2.27,0,0,1,.28,1q0,1.89-4.53,1.89a6.68,6.68,0,0,1-2.79-.55,4.68,4.68,0,0,1-1.9-1.43,6.13,6.13,0,0,1-1.34-3.85,5.58,5.58,0,0,1,1.73-4.28,6.13,6.13,0,0,1,4.32-1.6,4.83,4.83,0,0,1,4.34,2.08A4.34,4.34,0,0,1,345.56,273.29Zm-4.48.63c.54,0,.81-.23.81-.68a1,1,0,0,0-.38-.79,1.69,1.69,0,0,0-1.06-.29,2.13,2.13,0,0,0-1.37.56,1.59,1.59,0,0,0-.68,1.2Z" transform="translate(-85.95 -171.87)"/><path class="cls-8" d="M357.9,276.49h3.64a2.64,2.64,0,0,1,1.22.21,1.06,1.06,0,0,1,.5.62,4.39,4.39,0,0,1,0,2.12.94.94,0,0,1-.45.57,2,2,0,0,1-.56.19,6.53,6.53,0,0,1-.73,0h-7.67a1.77,1.77,0,0,1-1.3-.55,1.8,1.8,0,0,1-.55-1.32,1.76,1.76,0,0,1,.55-1.31c.37-.36.94-.88,1.7-1.56l2.08-1.84c.63-.54,1-.84,1-.9h-3c-.81,0-1.32-.13-1.53-.4a2,2,0,0,1-.37-1.23,4.51,4.51,0,0,1,.11-1.14,1.48,1.48,0,0,1,.26-.55,1,1,0,0,1,.42-.29,4.25,4.25,0,0,1,1.11-.11h6.9a1.83,1.83,0,0,1,1.3.53,1.81,1.81,0,0,1,.55,1.33,1.89,1.89,0,0,1-.64,1.41C362.05,272.72,360.52,274.11,357.9,276.49Z" transform="translate(-85.95 -171.87)"/><path class="cls-8" d="M372,270.22c.09-.79.65-1.19,1.68-1.19a4.57,4.57,0,0,1,1.23.13.86.86,0,0,1,.56.45,2,2,0,0,1,.2.56,6.53,6.53,0,0,1,0,.73v7.44a6.41,6.41,0,0,1,0,.73,2.75,2.75,0,0,1-.18.56c-.2.37-.69.56-1.46.56a2.87,2.87,0,0,1-1.55-.29,1.18,1.18,0,0,1-.46-.84,3,3,0,0,1-2.62,1.13,4.63,4.63,0,0,1-3.41-1.68,5.52,5.52,0,0,1-1.57-3.9,5.45,5.45,0,0,1,1.58-3.89,4.72,4.72,0,0,1,3.47-1.67,3.34,3.34,0,0,1,1.32.26,2.91,2.91,0,0,1,.83.48A3.55,3.55,0,0,1,372,270.22Zm-3.86,4.42a1.77,1.77,0,0,0,.55,1.27,1.82,1.82,0,0,0,1.34.56,1.68,1.68,0,0,0,1.3-.57,1.85,1.85,0,0,0,.52-1.27,1.9,1.9,0,0,0-.5-1.28,1.65,1.65,0,0,0-1.34-.6,1.7,1.7,0,0,0-1.35.6A1.88,1.88,0,0,0,368.17,274.64Z" transform="translate(-85.95 -171.87)"/><path class="cls-8" d="M382.89,279.23a.89.89,0,0,1-.41-.81,3.5,3.5,0,0,1,.81-1.67.83.83,0,0,1,.76-.37,3.23,3.23,0,0,1,1.41.52,3.22,3.22,0,0,0,1.61.52c.87,0,1.3-.17,1.3-.5s-.48-.47-1.42-.6a7,7,0,0,1-2.66-1,2.79,2.79,0,0,1-1-1.2,4.31,4.31,0,0,1-.4-1.94c0-2.24,1.53-3.36,4.61-3.36a7.51,7.51,0,0,1,3.1.72c.49.23.74.51.74.85a2.47,2.47,0,0,1-.47,1.26c-.31.49-.63.74-1,.74a3,3,0,0,1-.95-.32,3.56,3.56,0,0,0-1.49-.32c-.84,0-1.26.16-1.26.47s.48.7,1.45.83a8,8,0,0,1,2.72.81,2.37,2.37,0,0,1,1,1,3.75,3.75,0,0,1,.41,1.83,4,4,0,0,1-.41,1.88,2.71,2.71,0,0,1-1.16,1.16,7.79,7.79,0,0,1-3.41.66A7.31,7.31,0,0,1,382.89,279.23Z" transform="translate(-85.95 -171.87)"/><path class="cls-8" d="M403.62,269.29c.74.44,1.11.91,1.11,1.4a2.59,2.59,0,0,1-.43,1.17l-4.39,7.54a2,2,0,0,1-.68.65,1.8,1.8,0,0,1-.93.29,1.83,1.83,0,0,1-.87-.23,1.71,1.71,0,0,1-.58-.45l-.2-.24-4.41-7.56a2.35,2.35,0,0,1-.43-1.15c0-.51.37-1,1.11-1.42a2.81,2.81,0,0,1,1.27-.47.94.94,0,0,1,.73.29,4,4,0,0,1,.57.86l2.78,5.35,2.78-5.35.35-.59a1.41,1.41,0,0,1,.37-.36,1.18,1.18,0,0,1,.69-.18A2.49,2.49,0,0,1,403.62,269.29Z" transform="translate(-85.95 -171.87)"/><path class="cls-8" d="M406.72,270.44a5.84,5.84,0,0,1,8.14,0,5.87,5.87,0,0,1,.85,7.33,5.68,5.68,0,0,1-2.22,2,5.91,5.91,0,0,1-2.71.65,5.81,5.81,0,0,1-2.72-.69,6,6,0,0,1-2.22-2,5.36,5.36,0,0,1-.9-3.05A5.46,5.46,0,0,1,406.72,270.44Zm2.66,5.72a2.22,2.22,0,0,0,1.38.52,2.31,2.31,0,0,0,1.4-.53,2.14,2.14,0,0,0,0-3.12,2.3,2.3,0,0,0-1.43-.51,2.18,2.18,0,0,0-1.42.53,1.87,1.87,0,0,0-.66,1.56A1.84,1.84,0,0,0,409.38,276.16Z" transform="translate(-85.95 -171.87)"/><path class="cls-8" d="M418.8,269.1a3.32,3.32,0,0,1,1.05-.13,3.21,3.21,0,0,1,1,.13.9.9,0,0,1,.55.43,1.9,1.9,0,0,1,.19.55,6.73,6.73,0,0,1,0,.74v8.75a5,5,0,0,1-1.72,4,5.63,5.63,0,0,1-3.78,1.49,6.41,6.41,0,0,1-.73,0,1.74,1.74,0,0,1-.53-.18c-.36-.2-.55-.72-.55-1.55s.15-1.36.46-1.57a2,2,0,0,1,1.23-.32,2.26,2.26,0,0,0,1.37-.43,1.74,1.74,0,0,0,.59-1.53v-8.75a2.16,2.16,0,0,1,.21-1.09A1,1,0,0,1,418.8,269.1Zm2.06-1.73a4.16,4.16,0,0,1-1.05.11,3.57,3.57,0,0,1-1-.12.87.87,0,0,1-.54-.44,1.64,1.64,0,0,1-.19-.55,6.24,6.24,0,0,1,0-.74,5.85,5.85,0,0,1,0-.72,1.74,1.74,0,0,1,.18-.53c.2-.37.74-.55,1.63-.55s1.38.18,1.6.55a1.49,1.49,0,0,1,.18.51,6,6,0,0,1,0,.7v.13a6,6,0,0,1,0,.7,1.53,1.53,0,0,1-.2.53A1,1,0,0,1,420.86,267.37Z" transform="translate(-85.95 -171.87)"/><path class="cls-8" d="M428.33,280.19a4.5,4.5,0,0,1-3.56-1.63,5.82,5.82,0,0,1-1.41-4v-3.72a6.37,6.37,0,0,1,0-.74,1.84,1.84,0,0,1,.18-.55c.2-.39.75-.58,1.66-.58s1.57.27,1.74.81a3.2,3.2,0,0,1,.13,1.08v3.72a1.78,1.78,0,0,0,.5,1.36,2.06,2.06,0,0,0,2.69,0,1.79,1.79,0,0,0,.53-1.34v-3.76a6.53,6.53,0,0,1,0-.73,1.78,1.78,0,0,1,.2-.57c.18-.36.73-.55,1.64-.55s1.43.19,1.63.58a1.89,1.89,0,0,1,.18.56,6.53,6.53,0,0,1,0,.73v7.52a6.24,6.24,0,0,1,0,.71,1.54,1.54,0,0,1-.2.55c-.21.36-.76.55-1.64.55s-1.39-.17-1.59-.51a1.7,1.7,0,0,1-.21-.87,2.42,2.42,0,0,1-.38.42,4.61,4.61,0,0,1-.58.47A2.83,2.83,0,0,1,428.33,280.19Z" transform="translate(-85.95 -171.87)"/><path class="cls-8" d="M445.11,274.63a1.72,1.72,0,0,0,.6,1.4,1.89,1.89,0,0,0,1.26.5,2.23,2.23,0,0,0,1.26-.39,1.87,1.87,0,0,1,.94-.39c.43,0,.94.37,1.55,1.12a1.84,1.84,0,0,1,.49,1.11c0,.54-.39,1-1.17,1.51a5.1,5.1,0,0,1-3,.85,6.13,6.13,0,0,1-3.81-1.43,5.09,5.09,0,0,1-1.42-1.81,5.66,5.66,0,0,1-.55-2.51,5.55,5.55,0,0,1,.55-2.49,5.11,5.11,0,0,1,1.42-1.79,5.92,5.92,0,0,1,3.77-1.4,5.56,5.56,0,0,1,1.57.22,5.36,5.36,0,0,1,1.12.43l.34.22.6.4a1.21,1.21,0,0,1,.55,1,2.27,2.27,0,0,1-.45,1.22c-.51.78-1,1.17-1.46,1.17a2.51,2.51,0,0,1-1.15-.47,1.52,1.52,0,0,0-1.09-.36,2,2,0,0,0-1.33.51A1.74,1.74,0,0,0,445.11,274.63Z" transform="translate(-85.95 -171.87)"/><path class="cls-8" d="M456.09,267a.93.93,0,0,1-.57.44,4.47,4.47,0,0,1-2.14,0,.94.94,0,0,1-.57-.45,2,2,0,0,1-.19-.56,6.53,6.53,0,0,1,0-.73,6.61,6.61,0,0,1,0-.74,1.71,1.71,0,0,1,.18-.54c.2-.38.75-.57,1.66-.57s1.43.19,1.62.57a1.73,1.73,0,0,1,.2.56,6.73,6.73,0,0,1,0,.74,6.53,6.53,0,0,1,0,.73A1.8,1.8,0,0,1,456.09,267Zm-3.5,3.94a6.53,6.53,0,0,1,0-.73,1.89,1.89,0,0,1,.18-.56c.2-.37.75-.56,1.66-.56a2.22,2.22,0,0,1,1.45.37,1.17,1.17,0,0,1,.38.91c0,.14,0,.35,0,.62v7.43a6.41,6.41,0,0,1,0,.73,1.78,1.78,0,0,1-.2.57c-.19.37-.73.55-1.64.55s-1.44-.19-1.64-.57a2,2,0,0,1-.18-.56,6.37,6.37,0,0,1,0-.74Z" transform="translate(-85.95 -171.87)"/><path class="cls-8" d="M458.8,269.1a3.43,3.43,0,0,1,1.06-.13,3.3,3.3,0,0,1,1,.13.91.91,0,0,1,.54.43,1.9,1.9,0,0,1,.19.55,6.73,6.73,0,0,1,0,.74v8.75a5,5,0,0,1-1.72,4,5.63,5.63,0,0,1-3.78,1.49,6.09,6.09,0,0,1-.72,0,1.58,1.58,0,0,1-.53-.18c-.37-.2-.56-.72-.56-1.55s.16-1.36.46-1.57a2.08,2.08,0,0,1,1.23-.32,2.24,2.24,0,0,0,1.37-.43,1.74,1.74,0,0,0,.6-1.53v-8.75a2.29,2.29,0,0,1,.2-1.09A1,1,0,0,1,458.8,269.1Zm2.07-1.73a4.3,4.3,0,0,1-1.06.11,3.66,3.66,0,0,1-1-.12.92.92,0,0,1-.54-.44,1.9,1.9,0,0,1-.19-.55,6.73,6.73,0,0,1,0-.74,6.32,6.32,0,0,1,0-.72,1.74,1.74,0,0,1,.18-.53c.2-.37.74-.55,1.64-.55s1.38.18,1.59.55a1.49,1.49,0,0,1,.18.51,6,6,0,0,1,0,.7v.13a6,6,0,0,1,0,.7,1.53,1.53,0,0,1-.2.53A.94.94,0,0,1,460.87,267.37Z" transform="translate(-85.95 -171.87)"/><path class="cls-8" d="M474.15,273.29a2.61,2.61,0,0,1-.64,1.94,2.06,2.06,0,0,1-1.44.62h-5a1.16,1.16,0,0,0,.7,1,2.77,2.77,0,0,0,1.4.4,5.82,5.82,0,0,0,1.93-.25l.24-.08a2.09,2.09,0,0,1,.85-.24q.68,0,1.17,1a2.38,2.38,0,0,1,.27,1q0,1.89-4.52,1.89a6.73,6.73,0,0,1-2.8-.55,4.68,4.68,0,0,1-1.9-1.43,6.13,6.13,0,0,1-1.34-3.85,5.58,5.58,0,0,1,1.73-4.28,6.13,6.13,0,0,1,4.33-1.6,4.81,4.81,0,0,1,4.33,2.08A4.34,4.34,0,0,1,474.15,273.29Zm-4.48.63c.54,0,.81-.23.81-.68a1,1,0,0,0-.37-.79,1.75,1.75,0,0,0-1.07-.29,2.13,2.13,0,0,0-1.37.56,1.59,1.59,0,0,0-.68,1.2Z" transform="translate(-85.95 -171.87)"/><path class="cls-8" d="M481.76,269a4.51,4.51,0,0,1,3.54,1.63,5.82,5.82,0,0,1,1.41,4v3.74a6.41,6.41,0,0,1,0,.73,1.56,1.56,0,0,1-.18.54c-.2.39-.75.58-1.66.58s-1.59-.26-1.74-.79a3.28,3.28,0,0,1-.13-1.08V274.6a1.84,1.84,0,0,0-.5-1.36,1.81,1.81,0,0,0-1.34-.49,1.86,1.86,0,0,0-1.36.51,1.82,1.82,0,0,0-.52,1.34v3.76a6.41,6.41,0,0,1,0,.73,1.44,1.44,0,0,1-.2.54c-.19.39-.73.58-1.64.58s-1.43-.19-1.63-.58a1.89,1.89,0,0,1-.18-.56,6.41,6.41,0,0,1,0-.73v-7.52a6.24,6.24,0,0,1,0-.71,1.54,1.54,0,0,1,.2-.55c.2-.35.74-.53,1.64-.53s1.39.17,1.59.49a1.7,1.7,0,0,1,.21.87,2.05,2.05,0,0,1,.38-.42,3.65,3.65,0,0,1,.58-.45A2.82,2.82,0,0,1,481.76,269Z" transform="translate(-85.95 -171.87)"/><path class="cls-8" d="M493.38,280.19a4.5,4.5,0,0,1-3.56-1.63,5.82,5.82,0,0,1-1.41-4v-3.72a6.37,6.37,0,0,1,0-.74,1.84,1.84,0,0,1,.18-.55c.2-.39.75-.58,1.66-.58s1.57.27,1.74.81a3.2,3.2,0,0,1,.13,1.08v3.72a1.78,1.78,0,0,0,.5,1.36,1.81,1.81,0,0,0,1.34.49,1.86,1.86,0,0,0,1.36-.51,1.82,1.82,0,0,0,.52-1.34v-3.76a6.53,6.53,0,0,1,0-.73,1.78,1.78,0,0,1,.2-.57c.18-.36.73-.55,1.64-.55s1.43.19,1.63.58a1.89,1.89,0,0,1,.18.56,6.53,6.53,0,0,1,0,.73v7.52a6.24,6.24,0,0,1,0,.71,1.54,1.54,0,0,1-.2.55c-.21.36-.76.55-1.64.55s-1.39-.17-1.59-.51a1.7,1.7,0,0,1-.21-.87,2.42,2.42,0,0,1-.38.42,4.61,4.61,0,0,1-.58.47A2.83,2.83,0,0,1,493.38,280.19Z" transform="translate(-85.95 -171.87)"/><path class="cls-8" d="M504.58,276.72a2.19,2.19,0,0,1,.36,1.49v.09a6.69,6.69,0,0,1,0,.75,1.82,1.82,0,0,1-.23.58c-.21.42-.74.62-1.6.62a2.53,2.53,0,0,1-1.7-.4,2.12,2.12,0,0,1-.42-1.53v-.09a6.38,6.38,0,0,1,0-.74,1.5,1.5,0,0,1,.2-.57c.21-.43.75-.64,1.6-.64A2.73,2.73,0,0,1,504.58,276.72Z" transform="translate(-85.95 -171.87)"/><path class="cls-9" d="M547.25,250.21a12,12,0,1,0-9.9,13.85A12,12,0,0,0,547.25,250.21Zm-9.32,7.69c-7.42,0-7.41-11.51,0-11.51S545.34,257.9,537.93,257.9Z" transform="translate(-85.95 -171.87)"/><path class="cls-10" d="M547.25,250.21a12,12,0,1,0-9.9,13.85A12,12,0,0,0,547.25,250.21Zm-9.32,7.69c-7.42,0-7.41-11.51,0-11.51S545.34,257.9,537.93,257.9Z" transform="translate(-85.95 -171.87)"/><path class="cls-11" d="M535.64,246.83a4.8,4.8,0,0,0-.85,0,5.57,5.57,0,1,0,1.74,10.94C531.3,256.56,531,248.77,535.64,246.83Z" transform="translate(-85.95 -171.87)"/><path class="cls-10" d="M535.64,246.83a4.8,4.8,0,0,0-.85,0,5.57,5.57,0,1,0,1.74,10.94C531.3,256.56,531,248.77,535.64,246.83Z" transform="translate(-85.95 -171.87)"/><path class="cls-12" d="M550.06,249.57a12,12,0,1,0-9.9,13.85A12,12,0,0,0,550.06,249.57Zm-12.13,8.33c-7.42,0-7.41-11.51,0-11.51S545.34,257.9,537.93,257.9Z" transform="translate(-85.95 -171.87)"/><path class="cls-10" d="M550.06,249.57a12,12,0,1,0-9.9,13.85A12,12,0,0,0,550.06,249.57Zm-12.13,8.33c-7.42,0-7.41-11.51,0-11.51S545.34,257.9,537.93,257.9Z" transform="translate(-85.95 -171.87)"/><path class="cls-11" d="M541.9,248a6.27,6.27,0,0,1,0,8.33,5.73,5.73,0,0,0,0-8.33Z" transform="translate(-85.95 -171.87)"/><path class="cls-10" d="M541.9,248a6.27,6.27,0,0,1,0,8.33,5.73,5.73,0,0,0,0-8.33Z" transform="translate(-85.95 -171.87)"/><path class="cls-11" d="M533.46,248.58a5.63,5.63,0,0,0-.05,7.06A6.4,6.4,0,0,1,533.46,248.58Z" transform="translate(-85.95 -171.87)"/><path class="cls-10" d="M533.46,248.58a5.63,5.63,0,0,0-.05,7.06A6.4,6.4,0,0,1,533.46,248.58Z" transform="translate(-85.95 -171.87)"/><path class="cls-13" d="M579.76,248.55a12,12,0,1,0-9.91,13.85A12,12,0,0,0,579.76,248.55Zm-9.32,7.69c-7.42,0-7.41-11.51,0-11.51S577.85,256.24,570.44,256.24Z" transform="translate(-85.95 -171.87)"/><path class="cls-10" d="M579.76,248.55a12,12,0,1,0-9.91,13.85A12,12,0,0,0,579.76,248.55Zm-9.32,7.69c-7.42,0-7.41-11.51,0-11.51S577.85,256.24,570.44,256.24Z" transform="translate(-85.95 -171.87)"/><path class="cls-11" d="M568.15,245.17a6,6,0,0,0-.85,0,5.57,5.57,0,0,0,.81,11.11,6.94,6.94,0,0,0,.93-.16C563.81,254.9,563.52,247.11,568.15,245.17Z" transform="translate(-85.95 -171.87)"/><path class="cls-10" d="M568.15,245.17a6,6,0,0,0-.85,0,5.57,5.57,0,0,0,.81,11.11,6.94,6.94,0,0,0,.93-.16C563.81,254.9,563.52,247.11,568.15,245.17Z" transform="translate(-85.95 -171.87)"/><path class="cls-14" d="M582.57,247.91a12,12,0,1,0-9.9,13.85A12,12,0,0,0,582.57,247.91Zm-12.13,8.33c-7.42,0-7.41-11.51,0-11.51S577.85,256.24,570.44,256.24Z" transform="translate(-85.95 -171.87)"/><path class="cls-10" d="M582.57,247.91a12,12,0,1,0-9.9,13.85A12,12,0,0,0,582.57,247.91Zm-12.13,8.33c-7.42,0-7.41-11.51,0-11.51S577.85,256.24,570.44,256.24Z" transform="translate(-85.95 -171.87)"/><path class="cls-11" d="M574.4,246.31a6.26,6.26,0,0,1,0,8.33,5.71,5.71,0,0,0,0-8.33Z" transform="translate(-85.95 -171.87)"/><path class="cls-10" d="M574.4,246.31a6.26,6.26,0,0,1,0,8.33,5.71,5.71,0,0,0,0-8.33Z" transform="translate(-85.95 -171.87)"/><path class="cls-11" d="M566,246.92a5.65,5.65,0,0,0-1.27,3.56,5.74,5.74,0,0,0,1.22,3.51A6.4,6.4,0,0,1,566,246.92Z" transform="translate(-85.95 -171.87)"/><path class="cls-10" d="M566,246.92a5.65,5.65,0,0,0-1.27,3.56,5.74,5.74,0,0,0,1.22,3.51A6.4,6.4,0,0,1,566,246.92Z" transform="translate(-85.95 -171.87)"/></svg>